<svg width="14" height="14" viewBox="0 0 14 14" fill="none" xmlns="http://www.w3.org/2000/svg">
<path d="M1.00026 6.99788H13.0003C13.2403 6.99788 13.4003 7.15788 13.4003 7.39788C13.4003 7.63788 13.2403 7.79788 13.0003 7.79788H1.00026C0.76026 7.79788 0.60026 7.63788 0.60026 7.39788C0.60026 7.15788 0.76026 6.99788 1.00026 6.99788ZM1.00026 2.19788H13.0003C13.2403 2.19788 13.4003 2.35788 13.4003 2.59788C13.4003 2.83788 13.2403 2.99788 13.0003 2.99788H1.00026C0.76026 2.99788 0.60026 2.83788 0.60026 2.59788C0.60026 2.35788 0.76026 2.19788 1.00026 2.19788ZM1.00026 11.7979H13.0003C13.2403 11.7979 13.4003 11.9579 13.4003 12.1979C13.4003 12.4379 13.2403 12.5979 13.0003 12.5979H1.00026C0.76026 12.5979 0.60026 12.4379 0.60026 12.1979C0.60026 11.9579 0.76026 11.7979 1.00026 11.7979Z" fill="#A2A0A2"/>
</svg>
