<svg width="16" height="16" viewBox="0 0 16 16" fill="none" xmlns="http://www.w3.org/2000/svg">
<g clip-path="url(#clip0_104_359)">
<path d="M8 6.5C8.85 6.5 9.5 7.15 9.5 8C9.5 8.85 8.85 9.5 8 9.5C7.15 9.5 6.5 8.85 6.5 8C6.5 7.15 7.15 6.5 8 6.5ZM1.5 6.5C2.35 6.5 3 7.15 3 8C3 8.85 2.35 9.5 1.5 9.5C0.65 9.5 0 8.85 0 8C0 7.15 0.65 6.5 1.5 6.5ZM14.5 6.5C15.35 6.5 16 7.15 16 8C16 8.85 15.35 9.5 14.5 9.5C13.65 9.5 13 8.85 13 8C13 7.15 13.65 6.5 14.5 6.5Z" fill="#A2A0A2"/>
</g>
<defs>
<clipPath id="clip0_104_359">
<rect width="16" height="16" fill="white"/>
</clipPath>
</defs>
</svg>
