<svg width="12" height="12" viewBox="0 0 12 12" fill="none" xmlns="http://www.w3.org/2000/svg">
<g clip-path="url(#clip0_115_527)">
<path d="M9.75 5.25H6.75V2.25C6.75 1.8375 6.4125 1.5 6 1.5C5.5875 1.5 5.25 1.8375 5.25 2.25V5.25H2.25C1.8375 5.25 1.5 5.5875 1.5 6C1.5 6.4125 1.8375 6.75 2.25 6.75H5.25V9.75C5.25 10.1625 5.5875 10.5 6 10.5C6.4125 10.5 6.75 10.1625 6.75 9.75V6.75H9.75C10.1625 6.75 10.5 6.4125 10.5 6C10.5 5.5875 10.1625 5.25 9.75 5.25Z" fill="#A2A0A2"/>
</g>
<defs>
<clipPath id="clip0_115_527">
<rect width="12" height="12" fill="white"/>
</clipPath>
</defs>
</svg>
