<svg width="48" height="48" viewBox="0 0 48 48" fill="none" xmlns="http://www.w3.org/2000/svg">
<g filter="url(#filter0_i_104_198)">
<rect width="48" height="48" rx="12" fill="#9EE7E3"/>
<g clip-path="url(#clip0_104_198)">
<path fill-rule="evenodd" clip-rule="evenodd" d="M16.5996 30.5938H12.5996C11.9996 30.5938 11.5996 30.1938 11.5996 29.6938V22.4937C11.5996 21.9937 11.9996 21.5938 12.5996 21.5938H16.5996C17.1996 21.5938 17.5996 21.9937 17.5996 22.4937V29.6938C17.5996 30.1938 17.1996 30.5938 16.5996 30.5938Z" fill="#1E1F21" fill-opacity="0.75"/>
<path fill-rule="evenodd" clip-rule="evenodd" d="M16.5996 18.5938H12.5996C11.9996 18.5938 11.5996 18.1937 11.5996 17.5938V13.5938C11.5996 13.0938 11.9996 12.5938 12.5996 12.5938H16.5996C17.1996 12.5938 17.5996 13.0938 17.5996 13.5938V17.5938C17.5996 18.1937 17.1996 18.5938 16.5996 18.5938ZM25.5996 12.5938H21.5996C20.9996 12.5938 20.5996 13.0938 20.5996 13.5938V25.5938C20.5996 26.0938 20.9996 26.5938 21.5996 26.5938H25.5996C26.1996 26.5938 26.5996 26.0938 26.5996 25.5938V13.5938C26.5996 13.0938 26.1996 12.5938 25.5996 12.5938ZM34.5996 12.5938H30.5996C30.0996 12.5938 29.5996 13.0938 29.5996 13.5938V17.5938C29.5996 18.1937 30.0996 18.5938 30.5996 18.5938H34.5996C35.0996 18.5938 35.5996 18.1937 35.5996 17.5938V13.5938C35.5996 13.0938 35.0996 12.5938 34.5996 12.5938Z" fill="#F5F4F3"/>
</g>
</g>
<defs>
<filter id="filter0_i_104_198" x="0" y="0" width="48" height="48" filterUnits="userSpaceOnUse" color-interpolation-filters="sRGB">
<feFlood flood-opacity="0" result="BackgroundImageFix"/>
<feBlend mode="normal" in="SourceGraphic" in2="BackgroundImageFix" result="shape"/>
<feColorMatrix in="SourceAlpha" type="matrix" values="0 0 0 0 0 0 0 0 0 0 0 0 0 0 0 0 0 0 127 0" result="hardAlpha"/>
<feOffset dy="-4"/>
<feComposite in2="hardAlpha" operator="arithmetic" k2="-1" k3="1"/>
<feColorMatrix type="matrix" values="0 0 0 0 0 0 0 0 0 0 0 0 0 0 0 0 0 0 0.05 0"/>
<feBlend mode="normal" in2="shape" result="effect1_innerShadow_104_198"/>
</filter>
<clipPath id="clip0_104_198">
<rect width="28.8" height="28.8" fill="white" transform="translate(9.59961 9.59375)"/>
</clipPath>
</defs>
</svg>
