<svg width="19" height="18" viewBox="0 0 19 18" fill="none" xmlns="http://www.w3.org/2000/svg">
<path fill-rule="evenodd" clip-rule="evenodd" d="M14.7133 9.20076C12.4549 9.20076 10.6242 11.0315 10.6242 13.2901C10.6242 15.5486 12.4549 17.3793 14.7133 17.3793C16.9718 17.3793 18.8025 15.5486 18.8025 13.2901C18.8025 11.0315 16.9718 9.20076 14.7133 9.20076ZM4.08921 9.20112C1.83082 9.20112 0 11.0316 0 13.2901C0 15.5486 1.83082 17.3794 4.08921 17.3794C6.3477 17.3794 8.17861 15.5486 8.17861 13.2901C8.17861 11.0316 6.3477 9.20112 4.08921 9.20112ZM13.4904 4.08913C13.4904 6.3477 11.6596 8.1787 9.4013 8.1787C7.14279 8.1787 5.31206 6.3477 5.31206 4.08913C5.31206 1.831 7.14279 0 9.4013 0C11.6596 0 13.4904 1.831 13.4904 4.08913Z" fill="#F06A6A"/>
</svg>
